<?xml version="1.0" encoding="utf-8"?>
<!-- Generator: Adobe Illustrator 24.1.1, SVG Export Plug-In . SVG Version: 6.00 Build 0)  -->
<svg version="1.1" xmlns="http://www.w3.org/2000/svg" xmlns:xlink="http://www.w3.org/1999/xlink" x="0px" y="0px"
	 viewBox="0 0 1920 1080" style="enable-background:new 0 0 1920 1080;" xml:space="preserve">
<style type="text/css">
	.st0{opacity:0.3;fill:#FFFFFF;}
	.mergea:hover{opacity:0.7;fill:#FFFFFF;}
	.st1{fill:#333333;}
</style>
<g id="Layer_1">

		<image style="overflow:visible;" width="1254" height="836" xlink:href="../../../Users/marcc/Desktop/round-windows.jpg"  transform="matrix(1.2909 0 0 1.2909 149 1)">
	</image>
</g>
<g id="Layer_2">
	<ellipse class="st0 mergea" cx="615" cy="491.5" rx="241" ry="246.5"/>
	<g>
		<path class="st1 mergea" d="M418.4,453.5c3.8-0.6,8.8-1.1,15.2-1.1c7.8,0,13.6,1.6,17.2,4.6c3.4,2.6,5.4,6.7,5.4,11.6
			c0,5-1.6,8.9-4.7,11.8c-4.2,4-11,6.1-18.8,6.1c-2.4,0-4.6-0.1-6.4-0.5v22.2h-7.9V453.5z M426.3,480.1c1.7,0.4,3.9,0.6,6.6,0.6
			c9.6,0,15.4-4.2,15.4-11.8c0-7.3-5.7-10.8-14.5-10.8c-3.5,0-6.1,0.2-7.5,0.6V480.1z"/>
		<path class="st1 mergea" d="M466.1,449.8h8v24.8h0.2c1.3-2.1,3.3-3.9,5.7-5.1c2.4-1.2,5.2-2.1,8.2-2.1c5.9,0,15.4,3.3,15.4,17v23.6h-8
			v-22.8c0-6.4-2.6-11.8-10.2-11.8c-5.2,0-9.3,3.3-10.7,7.2c-0.5,1-0.5,2.1-0.5,3.4v24h-8V449.8z"/>
		<path class="st1 mergea" d="M525.6,457.2c0.1,2.5-1.9,4.4-5.1,4.4c-2.8,0-4.8-2-4.8-4.4c0-2.5,2.1-4.5,5-4.5
			C523.7,452.7,525.6,454.7,525.6,457.2z M516.7,508.1v-39.7h8v39.7H516.7z"/>
		<path class="st1 mergea" d="M538,449.8h8v58.3h-8V449.8z"/>
		<path class="st1 mergea" d="M599.3,487.9c0,14.7-11.3,21.1-21.9,21.1c-11.9,0-21.1-7.9-21.1-20.4c0-13.3,9.7-21.1,21.9-21.1
			C590.8,467.5,599.3,475.8,599.3,487.9z M564.4,488.3c0,8.7,5.6,15.3,13.4,15.3c7.6,0,13.4-6.5,13.4-15.4c0-6.7-3.7-15.3-13.2-15.3
			C568.5,472.9,564.4,480.8,564.4,488.3z"/>
		<path class="st1 mergea" d="M608.3,500.7c2.4,1.4,6.6,2.9,10.6,2.9c5.8,0,8.6-2.6,8.6-5.9c0-3.4-2.3-5.3-8.2-7.3
			c-7.9-2.5-11.7-6.5-11.7-11.2c0-6.4,5.7-11.7,15.2-11.7c4.5,0,8.4,1.1,10.8,2.5l-2,5.3c-1.7-1-4.9-2.3-9-2.3
			c-4.7,0-7.4,2.5-7.4,5.4c0,3.3,2.6,4.8,8.4,6.7c7.6,2.6,11.6,6.1,11.6,12c0,7-6,11.9-16.5,11.9c-4.8,0-9.3-1.1-12.4-2.7
			L608.3,500.7z"/>
		<path class="st1 mergea" d="M685.4,487.9c0,14.7-11.3,21.1-21.9,21.1c-11.9,0-21.1-7.9-21.1-20.4c0-13.3,9.7-21.1,21.9-21.1
			C676.8,467.5,685.4,475.8,685.4,487.9z M650.4,488.3c0,8.7,5.6,15.3,13.4,15.3c7.6,0,13.4-6.5,13.4-15.4c0-6.7-3.7-15.3-13.2-15.3
			C654.5,472.9,650.4,480.8,650.4,488.3z"/>
		<path class="st1 mergea" d="M695.5,481.4c0-5.1-0.2-9.2-0.4-13h7.2l0.4,6.8h0.2c3.3-4.8,8.5-7.7,15.7-7.7c10.7,0,18.7,8.1,18.7,20.2
			c0,14.3-9.7,21.3-20,21.3c-5.8,0-10.9-2.3-13.6-6.2h-0.2v21.6h-7.9V481.4z M703.4,492c0,1.1,0.2,2.1,0.4,3c1.5,5,6.3,8.5,12,8.5
			c8.5,0,13.4-6.2,13.4-15.4c0-8-4.6-14.8-13.1-14.8c-5.5,0-10.6,3.5-12.1,8.9c-0.3,0.9-0.5,2-0.5,3V492z"/>
		<path class="st1 mergea" d="M747.3,449.8h8v24.8h0.2c1.3-2.1,3.3-3.9,5.7-5.1c2.4-1.2,5.2-2.1,8.2-2.1c5.9,0,15.4,3.3,15.4,17v23.6h-8
			v-22.8c0-6.4-2.6-11.8-10.2-11.8c-5.2,0-9.3,3.3-10.7,7.2c-0.5,1-0.5,2.1-0.5,3.4v24h-8V449.8z"/>
		<path class="st1 mergea" d="M799.5,468.4l9.7,23.5c1,2.6,2.1,5.7,2.8,8.1h0.2c0.8-2.4,1.7-5.4,2.8-8.3l8.7-23.3h8.5l-12,28.3
			c-5.7,13.6-9.7,20.6-15.1,24.9c-3.9,3.1-7.8,4.4-9.8,4.7l-2-6.1c2-0.6,4.6-1.7,7-3.5c2.2-1.6,4.9-4.4,6.7-8
			c0.4-0.7,0.6-1.3,0.6-1.7c0-0.4-0.2-1-0.5-1.9l-16.3-36.6H799.5z"/>
	</g>
</g>
<g id="Layer_3">
	<ellipse class="st0" cx="1303.5" cy="488.5" rx="241.5" ry="249.5"/>
	<g>
		<path class="st1 mergea" d="M1163.1,398.8c-0.5-7.7-1-17-0.9-23.9h-0.3c-2.1,6.5-4.6,13.4-7.7,21l-10.8,26.8h-6l-9.9-26.4
			c-2.9-7.8-5.4-14.9-7.1-21.5h-0.2c-0.2,6.9-0.6,16.2-1.2,24.5l-1.6,23.7h-7.6l4.3-55.3h10.1l10.5,26.8c2.5,6.8,4.6,12.9,6.2,18.6
			h0.3c1.5-5.6,3.7-11.7,6.5-18.6l10.9-26.8h10.1l3.8,55.3h-7.7L1163.1,398.8z"/>
		<path class="st1 mergea" d="M1194.4,372.2c0.1,2.5-1.9,4.4-5.1,4.4c-2.8,0-4.8-2-4.8-4.4c0-2.5,2.1-4.5,5-4.5
			C1192.4,367.7,1194.4,369.7,1194.4,372.2z M1185.4,423.1v-39.7h8v39.7H1185.4z"/>
		<path class="st1 mergea" d="M1205.6,415.7c2.4,1.4,6.6,2.9,10.6,2.9c5.8,0,8.6-2.6,8.6-5.9c0-3.4-2.3-5.3-8.2-7.3
			c-7.9-2.5-11.7-6.5-11.7-11.2c0-6.4,5.7-11.7,15.2-11.7c4.5,0,8.4,1.1,10.8,2.5l-2,5.3c-1.7-1-4.9-2.3-9-2.3
			c-4.7,0-7.4,2.5-7.4,5.4c0,3.3,2.6,4.8,8.4,6.7c7.6,2.6,11.6,6.1,11.6,12c0,7-6,11.9-16.5,11.9c-4.8,0-9.3-1.1-12.4-2.7
			L1205.6,415.7z"/>
		<path class="st1 mergea" d="M1241.7,415.7c2.4,1.4,6.6,2.9,10.6,2.9c5.8,0,8.6-2.6,8.6-5.9c0-3.4-2.3-5.3-8.2-7.3
			c-7.9-2.5-11.7-6.5-11.7-11.2c0-6.4,5.7-11.7,15.2-11.7c4.5,0,8.4,1.1,10.8,2.5l-2,5.3c-1.7-1-4.9-2.3-9-2.3
			c-4.7,0-7.4,2.5-7.4,5.4c0,3.3,2.6,4.8,8.4,6.7c7.6,2.6,11.6,6.1,11.6,12c0,7-6,11.9-16.5,11.9c-4.8,0-9.3-1.1-12.4-2.7
			L1241.7,415.7z"/>
		<path class="st1 mergea" d="M1287.8,372.2c0.1,2.5-1.9,4.4-5.1,4.4c-2.8,0-4.8-2-4.8-4.4c0-2.5,2.1-4.5,5-4.5
			C1285.9,367.7,1287.8,369.7,1287.8,372.2z M1278.8,423.1v-39.7h8v39.7H1278.8z"/>
		<path class="st1 mergea" d="M1340,402.9c0,14.7-11.3,21.1-21.9,21.1c-11.9,0-21.1-7.9-21.1-20.4c0-13.3,9.7-21.1,21.9-21.1
			C1331.5,382.5,1340,390.8,1340,402.9z M1305.1,403.3c0,8.7,5.6,15.3,13.4,15.3c7.6,0,13.4-6.5,13.4-15.4c0-6.7-3.7-15.3-13.2-15.3
			C1309.2,387.9,1305.1,395.8,1305.1,403.3z"/>
		<path class="st1 mergea" d="M1350.1,394.2c0-4.1-0.1-7.5-0.4-10.8h7.1l0.5,6.6h0.2c2.2-3.8,7.3-7.5,14.6-7.5c6.1,0,15.6,3.3,15.6,16.9
			v23.7h-8v-22.9c0-6.4-2.6-11.7-10.2-11.7c-5.3,0-9.4,3.4-10.7,7.4c-0.4,0.9-0.5,2.1-0.5,3.4v23.9h-8V394.2z"/>
		<path class="st1 mergea" d="M1362.2,521.7c-1.7-1.6-3.4-3.1-5.7-5.4c-5.3,4.4-11.2,6.3-17.9,6.3c-11.9,0-18.8-7.2-18.8-15.5
			c0-7.6,5-12.7,12-16.2v-0.2c-3.2-3.6-5.1-7.6-5.1-11.6c0-6.7,5.4-13.6,15.6-13.6c7.6,0,13.6,4.6,13.6,11.7
			c0,5.8-3.7,10.4-13.5,14.8v0.2c5.2,5.4,11,11.5,14.9,15.4c2.8-3.9,4.7-9.2,5.9-16.2h7.3c-1.6,8.7-4.3,15.6-8.8,20.4
			c3.3,3.1,6.5,6.2,10.1,9.8H1362.2z M1352.5,512.1c-3.6-3.6-10.5-10.3-17.3-17.4c-3.3,1.9-7.9,5.4-7.9,11.2
			c0,6.3,5.2,11.2,12.6,11.2C1345.1,517.1,1349.6,515,1352.5,512.1z M1333.8,478.4c0,3.9,2,7,4.6,9.9c6.2-3.2,10.2-6.2,10.2-10.8
			c0-3.4-2.1-7.1-7.1-7.1C1336.5,470.3,1333.8,474.1,1333.8,478.4z"/>
		<path class="st1 mergea" d="M1314.6,620.2l-20-55.3h8.6l9.6,27.3c2.6,7.5,4.9,14.2,6.6,20.7h0.2c1.7-6.4,4.3-13.4,7-20.6l10.4-27.3h8.5
			l-21.9,55.3H1314.6z"/>
		<path class="st1 mergea" d="M1359.2,569.3c0.1,2.5-1.9,4.4-5.1,4.4c-2.8,0-4.8-2-4.8-4.4c0-2.5,2.1-4.5,5-4.5
			C1357.2,564.8,1359.2,566.7,1359.2,569.3z M1350.2,620.2v-39.7h8v39.7H1350.2z"/>
		<path class="st1 mergea" d="M1370.4,612.8c2.4,1.4,6.6,2.9,10.6,2.9c5.8,0,8.6-2.6,8.6-5.9c0-3.4-2.3-5.3-8.2-7.3
			c-7.9-2.5-11.7-6.5-11.7-11.2c0-6.4,5.7-11.7,15.2-11.7c4.5,0,8.4,1.1,10.8,2.5l-2,5.3c-1.7-1-4.9-2.3-9-2.3
			c-4.7,0-7.4,2.5-7.4,5.4c0,3.3,2.6,4.8,8.4,6.7c7.6,2.6,11.6,6.1,11.6,12c0,7-6,11.9-16.5,11.9c-4.8,0-9.3-1.1-12.4-2.7
			L1370.4,612.8z"/>
		<path class="st1 mergea" d="M1416.5,569.3c0.1,2.5-1.9,4.4-5.1,4.4c-2.8,0-4.8-2-4.8-4.4c0-2.5,2.1-4.5,5-4.5
			C1414.6,564.8,1416.5,566.7,1416.5,569.3z M1407.6,620.2v-39.7h8v39.7H1407.6z"/>
		<path class="st1 mergea" d="M1468.8,600c0,14.7-11.3,21.1-21.9,21.1c-11.9,0-21.1-7.9-21.1-20.4c0-13.3,9.7-21.1,21.9-21.1
			C1460.2,579.5,1468.8,587.8,1468.8,600z M1433.8,600.4c0,8.7,5.6,15.3,13.4,15.3c7.6,0,13.4-6.5,13.4-15.4
			c0-6.7-3.7-15.3-13.2-15.3S1433.8,592.8,1433.8,600.4z"/>
		<path class="st1 mergea" d="M1478.9,591.2c0-4.1-0.1-7.5-0.4-10.8h7.1l0.5,6.6h0.2c2.2-3.8,7.3-7.5,14.6-7.5c6.1,0,15.6,3.3,15.6,16.9
			v23.7h-8v-22.9c0-6.4-2.6-11.7-10.2-11.7c-5.3,0-9.4,3.4-10.7,7.4c-0.4,0.9-0.5,2.1-0.5,3.4v23.9h-8V591.2z"/>
	</g>
</g>
</svg>
