<?xml version="1.0" encoding="utf-8"?>
<!-- Generator: Adobe Illustrator 24.1.1, SVG Export Plug-In . SVG Version: 6.00 Build 0)  -->
<svg version="1.1" id="Layer_1" xmlns="http://www.w3.org/2000/svg" xmlns:xlink="http://www.w3.org/1999/xlink" x="0px" y="0px"
	 viewBox="0 0 1920 1080" style="enable-background:new 0 0 1920 1080;" xml:space="preserve">
<style type="text/css">
	.st0{fill:#ED9E00;}
	.st1{fill:#F9B200;}
	.st2{fill:#F2AD00;}
	.st3{fill:#FFD255;}
	.st4{fill:#EDAA03;}
	.st5{fill:#D19500;}
	.st6{fill:#E29F0A;}
	.st7{fill:#EAEAEA;}
	.st8{font-family:'MyriadPro-Regular';}
	.st9{font-size:45.3135px;}
</style>
<rect x="0.2" y="46.6" class="st0" width="746.4" height="1027.3"/>
<rect x="1166.7" y="46.6" class="st0" width="752.9" height="1027.3"/>
<polyline class="st1" points="743.9,-0.8 960.2,201.8 960.2,877.3 743.9,1079.8 743.9,10.3 743.9,10.3 743.9,10.3 743.9,10.3 
	743.9,10.3 "/>
<polyline class="st2" points="1176.5,-0.8 960.2,201.8 960.2,877.3 1176.5,1080 1176.5,-0.8 "/>
<polygon class="st3" points="728.4,306.7 33.1,306.7 35.9,316.6 731.2,316.6 "/>
<polygon class="st3" points="729.1,450.9 33.8,450.9 36.6,460.8 731.9,460.8 "/>
<polygon class="st3" points="729.1,589.8 33.8,589.8 36.6,599.7 731.9,599.7 "/>
<polygon class="st3" points="729.1,730.1 33.8,730.1 36.6,740 731.9,740 "/>
<polygon class="st3" points="729.1,868.4 33.8,868.4 36.6,878.3 731.9,878.3 "/>
<polygon class="st3" points="1883.4,307 1188.1,307 1190.9,316.9 1886.2,316.9 "/>
<polygon class="st3" points="1884.1,451.2 1188.8,451.2 1191.6,461.1 1886.9,461.1 "/>
<polygon class="st3" points="1884.1,590.2 1188.8,590.2 1191.6,600 1886.9,600 "/>
<polygon class="st3" points="1884.1,730.4 1188.8,730.4 1191.6,740.3 1886.9,740.3 "/>
<polygon class="st3" points="1884.1,868.7 1188.8,868.7 1191.6,878.6 1886.9,878.6 "/>
<polygon class="st3" points="875.9,240.7 799.7,202.6 825.3,190.7 901.2,228.5 "/>
<polygon class="st2" points="875.9,240.7 875.9,317.6 901.2,304.1 901.2,228.5 "/>
<polygon class="st4" points="800,202.9 800,278.5 875.9,317.6 875.9,240.7 "/>
<polygon class="st3" points="1042.9,240.1 1118.6,202 1093.1,190.1 1017.8,227.9 "/>
<polygon class="st5" points="1042.9,240.1 1042.9,317 1017.8,303.6 1017.8,227.9 "/>
<polygon class="st6" points="1118.3,202.3 1118.3,277.9 1042.9,317 1042.9,240.1 "/>
<polygon class="st3" points="876,386.6 799.8,348.5 825.4,336.5 901.2,374.4 "/>
<polygon class="st2" points="876,386.6 876,463.4 901.2,450 901.2,374.4 "/>
<polygon class="st4" points="800.1,348.7 800.1,424.4 876,463.4 876,386.6 "/>
<polygon class="st3" points="1042.9,386 1118.6,347.9 1093.2,336 1017.8,373.8 "/>
<polygon class="st5" points="1042.9,386 1042.9,462.8 1017.8,449.4 1017.8,373.8 "/>
<polygon class="st6" points="1118.3,348.2 1118.3,423.8 1042.9,462.8 1042.9,386 "/>
<polygon class="st3" points="876,532.3 799.8,494.2 825.4,482.3 901.3,520.1 "/>
<polygon class="st2" points="876,532.3 876,609.2 901.3,595.7 901.3,520.1 "/>
<polygon class="st4" points="800.1,494.5 800.1,570.1 876,609.2 876,532.3 "/>
<polygon class="st3" points="1043,531.7 1118.7,493.6 1093.2,481.7 1017.9,519.5 "/>
<polygon class="st5" points="1043,531.7 1043,608.6 1017.9,595.1 1017.9,519.5 "/>
<polygon class="st6" points="1118.4,493.9 1118.4,569.5 1043,608.6 1043,531.7 "/>
<polygon class="st3" points="876,678.1 799.8,640 825.4,628.1 901.3,665.9 "/>
<polygon class="st2" points="876,678.1 876,755 901.3,741.6 901.3,665.9 "/>
<polygon class="st4" points="800.1,640.3 800.1,716 876,755 876,678.1 "/>
<polygon class="st3" points="1043,677.6 1118.7,639.5 1093.2,627.5 1017.9,665.4 "/>
<polygon class="st5" points="1043,677.6 1043,754.4 1017.9,741 1017.9,665.4 "/>
<polygon class="st6" points="1118.4,639.7 1118.4,715.4 1043,754.4 1043,677.6 "/>
<polygon class="st3" points="874.6,823.3 798.4,785.2 824,773.3 899.9,811.1 "/>
<polygon class="st2" points="874.6,823.3 874.6,900.2 899.9,886.7 899.9,811.1 "/>
<polygon class="st4" points="798.7,785.5 798.7,861.1 874.6,900.2 874.6,823.3 "/>
<polygon class="st3" points="1041.6,822.7 1117.3,784.6 1091.8,772.7 1016.5,810.5 "/>
<polygon class="st5" points="1041.6,822.7 1041.6,899.6 1016.5,886.2 1016.5,810.5 "/>
<polygon class="st6" points="1117,784.9 1117,860.5 1041.6,899.6 1041.6,822.7 "/>
<g>
	<polygon class="st1" points="2.2,-0.8 0.8,55.1 743.9,53.4 743.9,48.3 818.3,-0.8 	"/>
	<polyline class="st1" points="1919.6,53.4 1176.4,55.1 1176.4,51.6 1106.3,-0.8 1919.6,-0.8 	"/>
	<polyline class="st3" points="743.9,53.4 743.9,53.4 743.9,53.4 743.9,53.4 743.9,53.4 960.2,206 1176.5,53.4 1176.5,48.3 
		1106.3,-0.8 960.2,97.5 818.3,-0.8 743.9,48.3 743.9,53.4 	"/>
</g>
<g>
	<polygon class="st1" points="2.6,1080 1.2,1024.2 744.3,1025.9 744.3,1031 818.7,1080 	"/>
	<polyline class="st1" points="1920,1026 1176.8,1024.2 1176.8,1027.7 1106.7,1080 1920,1080 	"/>
	<polyline class="st3" points="744.3,1025.9 744.3,1031 818.7,1080 960.6,982 1106.7,1080 1176.9,1031 1176.9,1025.9 960.6,873.8 
		744.3,1025.9 744.3,1025.9 744.3,1025.9 744.3,1025.9 744.3,1025.9 	"/>
</g>
<text transform="matrix(1.8469 0 0 1 137.7178 270.7188)" class="st7 st8 st9">Lorem ipsum</text>
<text transform="matrix(1.8469 0 0 1 144.959 425.3193)" class="st7 st8 st9">Lorem ipsum</text>
<text transform="matrix(1.8469 0 0 1 147.7686 571.6807)" class="st7 st8 st9">Lorem ipsum</text>
<text transform="matrix(1.8469 0 0 1 150.5771 703.9688)" class="st7 st8 st9">Lorem ipsum</text>
<text transform="matrix(1.8469 0 0 1 147.7686 847.5166)" class="st7 st8 st9">Lorem ipsum</text>
<text transform="matrix(1.8469 0 0 1 1300.9932 271.9214)" class="st7 st8 st9">Lorem ipsum</text>
<text transform="matrix(1.8469 0 0 1 1300.9932 418.2822)" class="st7 st8 st9">Lorem ipsum</text>
<text transform="matrix(1.8469 0 0 1 1305.2061 553.3857)" class="st7 st8 st9">Lorem ipsum</text>
<text transform="matrix(1.8469 0 0 1 1305.2061 694.1172)" class="st7 st8 st9">Lorem ipsum</text>
<text transform="matrix(1.8469 0 0 1 1299.5879 848.9229)" class="st7 st8 st9">Lorem ipsum</text>
</svg>
