<?xml version="1.0" encoding="utf-8"?>
<!-- Generator: Adobe Illustrator 24.1.1, SVG Export Plug-In . SVG Version: 6.00 Build 0)  -->
<svg version="1.1" xmlns="http://www.w3.org/2000/svg" xmlns:xlink="http://www.w3.org/1999/xlink" x="0px" y="0px"
	 viewBox="0 0 1366 768" style="enable-background:new 0 0 1366 768;" xml:space="preserve">
<style type="text/css">
	.st0{fill:#ED9E00;}
	.st1{fill:#F9B200;}
	.st2{fill:#F2AD00;}
	.st3{fill:#FFD255;}
	.st4{fill:#EDAA03;}
	.st5{fill:#D19500;}
	.st6{fill:#E29F0A;}
	.st7{fill:#EAEAEA;}
	.st8{font-family:'MyriadPro-Regular';}
	.st9{font-size:32.1984px;}
</style>
<g id="Layer_1">
	<rect x="0.1" y="33.7" class="st0" width="531.4" height="730"/>
	<rect x="830.5" y="33.7" class="st0" width="536" height="730"/>
	<polyline class="st1" points="529.5,0 683.5,144 683.5,624 529.5,767.9 529.5,7.9 529.5,7.9 529.5,7.9 529.5,7.9 529.5,7.9 	"/>
	<polyline class="st2" points="837.5,0 683.5,144 683.5,624 837.5,768 837.5,0 	"/>
	<polygon class="st3" points="518.5,218.5 23.5,218.5 25.5,225.5 520.5,225.5 	"/>
	<polygon class="st3" points="519,321 24,321 26,328 521,328 	"/>
	<polygon class="st3" points="519,419.7 24,419.7 26,426.7 521,426.7 	"/>
	<polygon class="st3" points="519,519.4 24,519.4 26,526.4 521,526.4 	"/>
	<polygon class="st3" points="519,617.6 24,617.6 26,624.7 521,624.7 	"/>
	<polygon class="st3" points="1340.8,218.7 845.8,218.7 847.8,225.8 1342.8,225.8 	"/>
	<polygon class="st3" points="1341.3,321.2 846.3,321.2 848.3,328.2 1343.3,328.2 	"/>
	<polygon class="st3" points="1341.3,419.9 846.3,419.9 848.3,427 1343.3,427 	"/>
	<polygon class="st3" points="1341.3,519.6 846.3,519.6 848.3,526.6 1343.3,526.6 	"/>
	<polygon class="st3" points="1341.3,617.9 846.3,617.9 848.3,624.9 1343.3,624.9 	"/>
	<polygon class="st3" points="623.5,171.6 569.3,144.6 587.5,136.1 641.5,163 	"/>
	<polygon class="st2" points="623.5,171.6 623.5,226.2 641.5,216.7 641.5,163 	"/>
	<polygon class="st4" points="569.5,144.8 569.5,198.5 623.5,226.2 623.5,171.6 	"/>
	<polygon class="st3" points="742.4,171.2 796.3,144.1 778.2,135.7 724.5,162.5 	"/>
	<polygon class="st5" points="742.4,171.2 742.4,225.8 724.5,216.3 724.5,162.5 	"/>
	<polygon class="st6" points="796.1,144.3 796.1,198.1 742.4,225.8 742.4,171.2 	"/>
	<polygon class="st3" points="623.6,275.3 569.3,248.2 587.6,239.7 641.6,266.6 	"/>
	<polygon class="st2" points="623.6,275.3 623.6,329.9 641.6,320.3 641.6,266.6 	"/>
	<polygon class="st4" points="569.6,248.4 569.6,302.1 623.6,329.9 623.6,275.3 	"/>
	<polygon class="st3" points="742.5,274.8 796.3,247.8 778.2,239.3 724.6,266.2 	"/>
	<polygon class="st5" points="742.5,274.8 742.5,329.5 724.6,319.9 724.6,266.2 	"/>
	<polygon class="st6" points="796.1,248 796.1,301.7 742.5,329.5 742.5,274.8 	"/>
	<polygon class="st3" points="623.6,378.8 569.4,351.7 587.6,343.3 641.6,370.2 	"/>
	<polygon class="st2" points="623.6,378.8 623.6,433.4 641.6,423.9 641.6,370.2 	"/>
	<polygon class="st4" points="569.6,351.9 569.6,405.7 623.6,433.4 623.6,378.8 	"/>
	<polygon class="st3" points="742.5,378.4 796.4,351.3 778.2,342.9 724.6,369.7 	"/>
	<polygon class="st5" points="742.5,378.4 742.5,433 724.6,423.5 724.6,369.7 	"/>
	<polygon class="st6" points="796.1,351.5 796.1,405.3 742.5,433 742.5,378.4 	"/>
	<polygon class="st3" points="623.6,482.5 569.4,455.4 587.6,446.9 641.6,473.8 	"/>
	<polygon class="st2" points="623.6,482.5 623.6,537.1 641.6,527.5 641.6,473.8 	"/>
	<polygon class="st4" points="569.6,455.6 569.6,509.3 623.6,537.1 623.6,482.5 	"/>
	<polygon class="st3" points="742.5,482 796.4,455 778.2,446.5 724.6,473.4 	"/>
	<polygon class="st5" points="742.5,482 742.5,536.6 724.6,527.1 724.6,473.4 	"/>
	<polygon class="st6" points="796.1,455.2 796.1,508.9 742.5,536.6 742.5,482 	"/>
	<polygon class="st3" points="622.6,585.6 568.4,558.5 586.6,550.1 640.6,576.9 	"/>
	<polygon class="st2" points="622.6,585.6 622.6,640.2 640.6,630.7 640.6,576.9 	"/>
	<polygon class="st4" points="568.6,558.7 568.6,612.5 622.6,640.2 622.6,585.6 	"/>
	<polygon class="st3" points="741.5,585.2 795.4,558.1 777.2,549.6 723.6,576.5 	"/>
	<polygon class="st5" points="741.5,585.2 741.5,639.8 723.6,630.3 723.6,576.5 	"/>
	<polygon class="st6" points="795.1,558.3 795.1,612.1 741.5,639.8 741.5,585.2 	"/>
	<g>
		<polygon class="st1" points="1.5,0 0.5,39.8 529.5,38.5 529.5,34.9 582.5,0 		"/>
		<polyline class="st1" points="1366.5,38.5 837.4,39.8 837.4,37.3 787.5,0 1366.5,0 		"/>
		<polyline class="st3" points="529.5,38.5 529.5,38.5 529.5,38.5 529.5,38.5 529.5,38.5 683.5,147 837.5,38.5 837.5,34.9 787.5,0 
			683.5,69.9 582.5,0 529.5,34.9 529.5,38.5 		"/>
	</g>
	<g>
		<polygon class="st1" points="1.8,768 0.8,728.4 529.8,729.6 529.8,733.2 582.8,768 		"/>
		<polyline class="st1" points="1366.8,729.6 837.8,728.4 837.8,730.8 787.8,768 1366.8,768 		"/>
		<polyline class="st3" points="529.8,729.6 529.8,733.2 582.8,768 683.8,698.3 787.8,768 837.8,733.2 837.8,729.6 683.8,621.5 
			529.8,729.6 529.8,729.6 529.8,729.6 529.8,729.6 529.8,729.6 		"/>
	</g>
</g>
<g id="Layer_2">
	<text transform="matrix(1.8504 0 0 1 98.0005 192.9502)" class="st7 st8 st9">Lorem ipsum</text>
	<text transform="matrix(1.8504 0 0 1 103.1554 302.8044)" class="st7 st8 st9">Lorem ipsum</text>
	<text transform="matrix(1.8504 0 0 1 105.1556 406.8045)" class="st7 st8 st9">Lorem ipsum</text>
	<text transform="matrix(1.8504 0 0 1 107.1553 500.8042)" class="st7 st8 st9">Lorem ipsum</text>
	<text transform="matrix(1.8504 0 0 1 105.1555 602.8049)" class="st7 st8 st9">Lorem ipsum</text>
	<text transform="matrix(1.8504 0 0 1 926.1556 193.8046)" class="st7 st8 st9">Lorem ipsum</text>
	<text transform="matrix(1.8504 0 0 1 926.1558 297.8042)" class="st7 st8 st9">Lorem ipsum</text>
	<text transform="matrix(1.8504 0 0 1 929.155 393.8044)" class="st7 st8 st9">Lorem ipsum</text>
	<text transform="matrix(1.8504 0 0 1 929.1552 493.8043)" class="st7 st8 st9">Lorem ipsum</text>
	<text transform="matrix(1.8504 0 0 1 925.1554 603.804)" class="st7 st8 st9">Lorem ipsum</text>
</g>
</svg>
