<?xml version="1.0" encoding="utf-8"?>
<!-- Generator: Adobe Illustrator 24.1.1, SVG Export Plug-In . SVG Version: 6.00 Build 0)  -->
<svg version="1.1" xmlns="http://www.w3.org/2000/svg" xmlns:xlink="http://www.w3.org/1999/xlink" x="0px" y="0px"
	 viewBox="0 0 250 250" style="enable-background:new 0 0 250 250;" xml:space="preserve">
<style type="text/css">
	.st0{fill:#F26722;}
</style>
<g id="Layer_2">
	<rect x="32.7" y="210.2" class="st0" width="57.5" height="40.2"/>
</g>
<g id="Layer_3_1_">
	<rect y="155.6" class="st0" width="33.5" height="94.4"/>
</g>
<g id="Layer_4_1_">
	<rect y="74.8" class="st0" width="33.5" height="80.8"/>
	<polygon class="st0" points="0,0 33.5,74.8 0,74.8 	"/>
</g>
<g id="Layer_5">
	<polygon class="st0" points="0,0 92.8,73.8 33.5,74.8 	"/>
	<path class="st0" d="M125,63.1"/>
</g>
<g id="Layer_6">
	<polygon class="st0" points="33.5,74.8 250,250 250,171.3 213.5,171.4 92.8,73.8 	"/>
</g>
<g id="Layer_7">
	<polygon class="st0" points="213.5,171.4 213.2,34.8 250,35 250,171.3 	"/>
</g>
<g id="Layer_8">
	<polygon class="st0" points="250,35 250,0 156.9,0 156.9,34.8 	"/>
</g>
<g id="Layer_9">
	<polygon class="st0" points="156.9,34.8 156.9,52 197.5,139 196.9,34.8 	"/>
</g>
<g id="Layer_10">
	<polygon class="st0" points="197.5,139 24.3,0 92,0 156.9,52 	"/>
</g>
<g id="Layer_11">
	<polygon class="st0" points="90.2,210.2 89.7,192.6 50.2,107.4 50.2,210.2 	"/>
</g>
<g id="Layer_12">
	<polygon class="st0" points="50.2,107.4 229.2,250 160.7,250 89.7,192.6 	"/>
</g>
</svg>
